<?xml version="1.0" standalone="no"?>
<!DOCTYPE svg PUBLIC "-//W3C//DTD SVG 20010904//EN"
 "http://www.w3.org/TR/2001/REC-SVG-20010904/DTD/svg10.dtd">
<svg version="1.0" xmlns="http://www.w3.org/2000/svg"
 width="348.000000pt" height="475.000000pt" viewBox="0 0 348.000000 475.000000"
 preserveAspectRatio="xMidYMid meet">

<g transform="translate(0.000000,475.000000) scale(0.100000,-0.100000)"
fill="currentColor" stroke="currentColor">
<path d="M1693 4704 c-42 -21 -389 -374 -539 -549 -527 -617 -872 -1214 -1029
-1783 -167 -607 -101 -1143 194 -1584 88 -131 189 -248 294 -339 780 -676
1956 -527 2538 323 475 693 373 1622 -294 2674 -147 232 -353 505 -565 747
-151 173 -468 493 -507 511 -41 20 -52 20 -92 0z m-1088 -2878 c50 -21 61 -49
73 -173 20 -201 79 -370 182 -524 57 -85 208 -233 295 -290 86 -57 95 -67 102
-118 5 -36 2 -44 -30 -76 -28 -28 -43 -35 -74 -35 -56 0 -184 89 -314 219
-204 203 -321 435 -364 721 -28 179 -16 248 48 275 40 18 41 18 82 1z"/>
</g>
</svg>
