<?xml version="1.0" standalone="no"?>
<!DOCTYPE svg PUBLIC "-//W3C//DTD SVG 20010904//EN"
 "http://www.w3.org/TR/2001/REC-SVG-20010904/DTD/svg10.dtd">
<svg version="1.0" xmlns="http://www.w3.org/2000/svg"
 width="466.000000pt" height="565.000000pt" viewBox="0 0 466.000000 565.000000"
 preserveAspectRatio="xMidYMid meet">

<g transform="translate(0.000000,565.000000) scale(0.100000,-0.100000)"
fill="#000000" stroke="none">
<path d="M2235 5614 c-161 -15 -265 -30 -365 -55 -880 -221 -1572 -1037 -1779
-2099 -45 -231 -55 -343 -55 -640 0 -305 10 -411 60 -664 204 -1030 894 -1845
1752 -2067 457 -118 955 -60 1384 160 660 340 1161 1057 1331 1901 51 252 61
365 61 670 0 297 -10 410 -55 640 -223 1140 -1010 1997 -1960 2134 -110 15
-307 26 -374 20z m75 -240 c-11 -82 -35 -246 -54 -364 -54 -335 -69 -517 -63
-715 15 -429 128 -768 446 -1339 71 -126 144 -275 183 -371 289 -717 181
-1486 -315 -2235 -38 -57 -132 -188 -164 -229 -16 -21 2 138 57 508 77 517 85
762 33 1051 -51 286 -169 580 -385 960 -166 291 -247 482 -304 710 -170 682
10 1410 519 2097 33 46 62 81 64 79 2 -1 -6 -70 -17 -152z"/>
</g>
</svg>
