<?xml version="1.0" standalone="no"?>
<!DOCTYPE svg PUBLIC "-//W3C//DTD SVG 20010904//EN"
 "http://www.w3.org/TR/2001/REC-SVG-20010904/DTD/svg10.dtd">
<svg version="1.0" xmlns="http://www.w3.org/2000/svg"
 width="348.000000pt" height="474.000000pt" viewBox="0 0 348.000000 474.000000"
 preserveAspectRatio="xMidYMid meet">

<g transform="translate(0.000000,474.000000) scale(0.100000,-0.100000)"
fill="#000000" stroke="none">
<path d="M1693 4704 c-42 -21 -389 -374 -539 -549 -527 -617 -872 -1214 -1029
-1783 -45 -167 -71 -316 -85 -495 -55 -702 307 -1349 930 -1666 763 -388 1691
-151 2178 557 258 374 350 840 266 1337 -110 651 -500 1377 -1122 2088 -151
173 -468 493 -507 511 -41 20 -52 20 -92 0z m183 -376 c667 -693 1120 -1420
1284 -2063 56 -221 74 -371 67 -579 -7 -239 -45 -400 -141 -601 -248 -518
-768 -845 -1346 -845 -509 0 -965 246 -1247 672 -230 349 -298 758 -202 1230
136 674 605 1452 1323 2195 65 68 122 123 126 123 4 0 65 -60 136 -132z"/>
<path d="M523 1825 c-64 -27 -76 -96 -48 -275 29 -194 93 -362 201 -527 110
-170 387 -413 471 -413 72 0 122 55 109 122 -7 40 -26 59 -111 114 -78 50
-230 202 -285 283 -103 154 -162 323 -182 524 -12 124 -23 152 -73 173 -41 17
-42 17 -82 -1z"/>
</g>
</svg>
